# xmcd
#
# Track frame offsets:
#	150
#	10033
#	26405
#	43799
#	62304
#	76060
#	94109
#	109632
#	123237
#	140619
#	155498
#	180619
#
# Disc length: 2623 seconds
#
# Revision: 0
# Processed by: cddbd v1.5.1PL0 Copyright (c) Steve Scherf et al.
# Submitted via: EasyCDDAExtractor 7.7.1.2
#
DISCID=880a3d0c
DTITLE=Gino and Geno - Ao Vivo
DYEAR=2004
DGENRE=sertanejo
TTITLE0=Abertura
TTITLE1=Ela Chorou De Amor
TTITLE2=Vou Beber Veneno
TTITLE3=Coração Cigano
TTITLE4=Nóis Enverga Mas Não Quebra
TTITLE5=As Águas Do São Francisco
TTITLE6=O Que Que Eu Tô Fazendo Aqui
TTITLE7=Cabelo De Samambaia
TTITLE8=Mulher Que Não Dá, Voa
TTITLE9=Blusa Amarela
TTITLE10=Paixão Mineira
TTITLE11=Troféu De Dor
EXTD=
EXTT0=
EXTT1=
EXTT2=
EXTT3=
EXTT4=
EXTT5=
EXTT6=
EXTT7=
EXTT8=
EXTT9=
EXTT10=
EXTT11=
PLAYORDER=
